<svg width="145" height="40" viewBox="0 0 145 40" fill="none" xmlns="http://www.w3.org/2000/svg">
<path d="M25.5982 18.2837C29.5682 18.2837 32.3664 15.3106 32.3664 11.1132C32.3664 6.60105 29.848 3.94273 25.5982 3.94273C21.6282 3.94273 18.83 6.91586 18.83 11.1132C18.83 15.6254 21.3484 18.2837 25.5982 18.2837ZM25.8431 17.9514C23.7968 18.0389 22.4852 15.5379 22.3453 11.2181C22.2053 6.93334 23.3072 4.36246 25.3534 4.27502C27.3996 4.18757 28.7113 6.6885 28.8512 11.0083C28.9911 15.2931 27.8893 17.864 25.8431 17.9514Z" fill="#25282B"/>
<path d="M42.1641 17.2693L41.9542 16.972V11.6554C41.9018 9.87149 40.8524 8.9096 39.1035 8.9096C38.0717 8.9096 37.1448 9.41678 36.6901 10.3612V8.66475H36.4277C35.4308 9.52171 34.5739 9.87149 33.4021 9.87149V10.2038H33.9268V16.972L33.7169 17.2693C33.4896 17.6366 33.2272 17.8465 33.0523 17.8465V18.1088H37.5645V17.8465C37.3721 17.8465 37.1273 17.6366 36.8999 17.2693L36.6901 16.972V11.9002C36.8125 10.5536 37.4596 9.48674 38.2466 9.48674C39.191 9.48674 39.191 10.7984 39.191 11.6554V16.972L38.9811 17.2693C38.7538 17.6366 38.4914 17.8465 38.3165 17.8465V18.1088H42.8287V17.8465C42.6363 17.8465 42.3915 17.6366 42.1641 17.2693Z" fill="#25282B"/>
<path d="M48.1759 18.1963C51.2365 18.1963 52.898 16.2725 52.898 13.5617C52.898 10.8334 51.1841 8.92709 48.4733 8.92709C47.7212 8.92709 47.1266 9.18942 46.7244 9.66163V3.43555H46.462C45.4652 4.29251 44.6082 4.64229 43.4364 4.64229V4.97458H43.9436V16.9895C43.9436 16.9895 45.1678 18.1963 48.1759 18.1963ZM48.3508 17.8989C47.0042 17.9514 46.7069 16.9021 46.7069 16.9021V10.5885C47.0392 9.73158 47.5813 9.29436 48.1759 9.25938C49.2253 9.18942 49.8199 10.6235 49.9773 13.5442C50.1347 16.4124 49.5926 17.8465 48.3508 17.8989Z" fill="#25282B"/>
<path d="M58.3168 8.92709C55.7634 8.92709 53.9446 10.8509 53.9446 13.5617C53.9446 15.9577 55.3787 17.6366 57.4424 18.0913C59.2787 18.4411 60.9052 17.7415 61.6922 16.185L61.4474 15.9577C60.7478 17.1644 59.4186 17.5841 58.5267 17.3218C57.6173 17.042 57.0751 15.6429 57.0751 13.5617V13.037H61.9021C62.007 13.037 62.0944 12.9496 62.0944 12.8271C62.0944 10.3437 60.3805 8.92709 58.3168 8.92709ZM59.1563 12.7047H57.0926C57.1451 10.3437 57.4599 9.18942 58.3168 9.18942C59.0689 9.18942 59.4011 9.90647 59.5061 12.0751V12.3549C59.5061 12.5473 59.3487 12.7047 59.1563 12.7047Z" fill="#25282B"/>
<path d="M18.5177 35.9824H19.6045C19.8044 35.9824 19.9168 35.8575 19.9668 35.7325L20.5789 34.3834H24.314L24.9261 35.7325C25.0136 35.9074 25.101 35.9824 25.2884 35.9824H26.3752C26.5626 35.9824 26.6625 35.82 26.5876 35.6576L22.74 27.2504C22.7025 27.1754 22.6526 27.113 22.5276 27.113H22.4027C22.2903 27.113 22.2278 27.1754 22.1904 27.2504L18.3053 35.6576C18.2304 35.82 18.3303 35.9824 18.5177 35.9824ZM21.191 32.9968L22.4152 30.2485H22.4527L23.7019 32.9968H21.191Z" fill="#25282B"/>
<path d="M30.2239 35.745C30.2239 35.87 30.3238 35.9824 30.4612 35.9824H31.6105C31.7354 35.9824 31.8478 35.87 31.8478 35.745V32.8094H33.4094C34.9334 32.8094 36.1951 31.5477 36.1951 29.9986C36.1951 28.4871 34.9334 27.2379 33.3969 27.2379H30.4612C30.3238 27.2379 30.2239 27.3503 30.2239 27.4752V35.745ZM31.8478 31.2853V28.7744H33.2969C33.9965 28.7744 34.5836 29.2991 34.5836 29.9862C34.5836 30.7232 33.9965 31.2853 33.2969 31.2853H31.8478Z" fill="#25282B"/>
<path d="M40.1151 35.745C40.1151 35.87 40.2275 35.9824 40.3525 35.9824H41.5142C41.6391 35.9824 41.7516 35.87 41.7516 35.745V27.4752C41.7516 27.3503 41.6391 27.2379 41.5142 27.2379H40.3525C40.2275 27.2379 40.1151 27.3503 40.1151 27.4752V35.745Z" fill="#25282B"/>
<path d="M46.1797 35.0954C46.3421 35.2453 47.3415 36.1073 48.8156 36.1073C50.2772 36.1073 51.5139 35.1579 51.5139 33.8587C51.5139 32.4096 50.4271 31.7725 48.7406 31.0855C47.6913 30.6482 47.0542 30.161 47.0542 29.3241C47.0542 28.7994 47.4539 27.9499 48.7781 27.9499C49.5401 27.9499 50.3271 28.4746 50.4146 28.5246C50.6144 28.637 50.7394 28.587 50.8518 28.4121C50.9018 28.3372 50.9517 28.2497 51.0017 28.1748C51.1516 27.9374 51.0017 27.7875 50.9268 27.7501C50.9268 27.7501 50.0148 27.113 48.7906 27.113C46.8043 27.113 46.1298 28.4871 46.1298 29.3366C46.1298 30.7607 46.9543 31.3228 48.3284 31.9224C49.765 32.5221 50.5145 33.0342 50.5145 33.8962C50.5145 34.6332 49.8524 35.2703 48.8406 35.2703C47.7288 35.2703 46.8168 34.3959 46.7294 34.3209C46.5545 34.171 46.4171 34.271 46.2922 34.4334C46.2297 34.5083 46.1672 34.5958 46.1048 34.6707C45.9549 34.9081 46.0798 35.008 46.1797 35.0954Z" fill="#25282B"/>
<path d="M55.8262 35.745C55.8262 35.87 55.9386 35.9824 56.0636 35.9824H56.5632C56.6882 35.9824 56.8006 35.87 56.8006 35.745V27.4752C56.8006 27.3503 56.6882 27.2379 56.5632 27.2379H56.0636C55.9386 27.2379 55.8262 27.3503 55.8262 27.4752V35.745Z" fill="#25282B"/>
<path d="M61.2256 35.6826C61.1882 35.8575 61.2631 35.9824 61.4505 35.9824H61.9502C62.0501 35.9824 62.1625 35.8949 62.175 35.8075L63.2619 29.374C63.2743 29.374 63.2993 29.374 63.3118 29.374L65.6354 35.9699C65.6603 36.0448 65.7728 36.1073 65.8477 36.1073H66.0726C66.1475 36.1073 66.26 36.0448 66.285 35.9699L68.5835 29.374C68.596 29.374 68.621 29.374 68.6335 29.374L69.7453 35.8075C69.7703 35.8949 69.8702 35.9824 69.9701 35.9824H70.4698C70.6572 35.9824 70.7322 35.8575 70.6947 35.6826L69.0832 27.2879C69.0582 27.1879 68.9583 27.113 68.8583 27.113H68.6585C68.571 27.113 68.4711 27.1754 68.4461 27.2504L66.0101 34.1335C65.9851 34.1335 65.9726 34.1335 65.9477 34.1335L63.4742 27.2504C63.4492 27.1754 63.3493 27.113 63.2619 27.113H63.062C62.962 27.113 62.8621 27.1879 62.8371 27.2879L61.2256 35.6826Z" fill="#25282B"/>
<path d="M75.1207 35.745C75.1207 35.87 75.2206 35.9824 75.358 35.9824H75.8327C75.9577 35.9824 76.0701 35.87 76.0701 35.745V32.8094H78.1313C79.6553 32.8094 80.917 31.5477 80.917 29.9986C80.917 28.4871 79.6553 27.2379 78.1188 27.2379H75.358C75.2206 27.2379 75.1207 27.3503 75.1207 27.4752V35.745ZM76.0701 31.885V28.1873H78.0563C79.0807 28.1873 79.9551 28.9618 79.9551 29.9737C79.9551 31.048 79.0807 31.885 78.0563 31.885H76.0701Z" fill="#25282B"/>
<path d="M85.0607 35.745C85.0607 35.87 85.1607 35.9824 85.2981 35.9824H89.6203C89.7578 35.9824 89.8577 35.87 89.8577 35.745V35.3828C89.8577 35.2578 89.7578 35.1454 89.6203 35.1454H86.0226V27.4752C86.0226 27.3503 85.9102 27.2379 85.7853 27.2379H85.2981C85.1607 27.2379 85.0607 27.3503 85.0607 27.4752V35.745Z" fill="#25282B"/>
<path d="M93.6954 35.745C93.6954 35.87 93.8079 35.9824 93.9328 35.9824H94.4325C94.5574 35.9824 94.6698 35.87 94.6698 35.745V27.4752C94.6698 27.3503 94.5574 27.2379 94.4325 27.2379H93.9328C93.8079 27.2379 93.6954 27.3503 93.6954 27.4752V35.745Z" fill="#25282B"/>
<path d="M99.7195 35.745C99.7195 35.87 99.8194 35.9824 99.9568 35.9824H100.444C100.569 35.9824 100.681 35.87 100.681 35.745V32.3347H104.267C104.392 32.3347 104.504 32.2222 104.504 32.0973V31.7351C104.504 31.6101 104.392 31.4977 104.267 31.4977H100.681V28.0749H104.879C105.016 28.0749 105.116 27.9624 105.116 27.8375V27.4752C105.116 27.3503 105.016 27.2379 104.879 27.2379H99.9568C99.8194 27.2379 99.7195 27.3503 99.7195 27.4752V35.745Z" fill="#25282B"/>
<path d="M109.33 35.745C109.33 35.87 109.443 35.9824 109.567 35.9824H110.067C110.192 35.9824 110.304 35.87 110.304 35.745V27.4752C110.304 27.3503 110.192 27.2379 110.067 27.2379H109.567C109.443 27.2379 109.33 27.3503 109.33 27.4752V35.745Z" fill="#25282B"/>
<path d="M115.354 35.745C115.354 35.87 115.454 35.9824 115.591 35.9824H120.513C120.651 35.9824 120.751 35.87 120.751 35.745V35.3828C120.751 35.2578 120.651 35.1454 120.513 35.1454H116.316V31.9599H119.901C120.026 31.9599 120.139 31.86 120.139 31.7226V31.3603C120.139 31.2354 120.026 31.1229 119.901 31.1229H116.316V28.0749H120.513C120.651 28.0749 120.751 27.9624 120.751 27.8375V27.4752C120.751 27.3503 120.651 27.2379 120.513 27.2379H115.591C115.454 27.2379 115.354 27.3503 115.354 27.4752V35.745Z" fill="#25282B"/>
<path d="M125.245 35.745C125.245 35.87 125.345 35.9824 125.47 35.9824H128.268C130.679 35.9824 132.653 34.0211 132.653 31.5976C132.653 29.1991 130.679 27.2379 128.268 27.2379H125.47C125.345 27.2379 125.245 27.3503 125.245 27.4752V35.745ZM126.195 35.1204V28.0873H128.069C130.117 28.0873 131.604 29.5489 131.604 31.5976C131.604 33.6588 130.117 35.1204 128.069 35.1204H126.195Z" fill="#25282B"/>
<path d="M139.937 31.0105H140.062C140.162 31.0105 140.274 30.9106 140.299 30.8106L140.736 28.7369L141.611 30.9231C141.636 30.998 141.761 31.048 141.823 31.048H141.898C141.973 31.048 142.073 30.998 142.098 30.9356L142.998 28.7369L143.422 30.7981C143.447 30.9106 143.547 31.0105 143.66 31.0105H143.81C143.959 31.0105 144.072 30.8856 144.047 30.7357L143.385 27.3628C143.36 27.2629 143.247 27.1754 143.147 27.1754H143.098C143.023 27.1754 142.91 27.2504 142.885 27.3128L141.861 29.9612L140.849 27.3128C140.824 27.2504 140.712 27.1754 140.637 27.1754H140.587C140.474 27.1754 140.374 27.2629 140.349 27.3628L139.7 30.7232C139.675 30.8731 139.775 31.0105 139.937 31.0105ZM137.776 31.0105H137.938C138.063 31.0105 138.176 30.8981 138.176 30.7732V27.85H139.05C139.187 27.85 139.287 27.7501 139.287 27.6126V27.4752C139.287 27.3503 139.187 27.2379 139.05 27.2379H136.664C136.539 27.2379 136.427 27.3503 136.427 27.4752V27.6126C136.427 27.7501 136.539 27.85 136.664 27.85H137.539V30.7732C137.539 30.8981 137.638 31.0105 137.776 31.0105Z" fill="#25282B"/>
<g clip-path="url(#clip0)">
<path d="M4.35609 19.7195C5.93181 20.2161 6.71966 21.2091 6.71966 23.6209V32.8422C6.71966 34.9702 7.72239 36.1052 9.87109 36.1052H10.9454V39.4391H9.08323C4.85746 39.4391 2.63714 37.3111 2.63714 33.1969V23.5499C2.63714 22.0603 1.9209 21.4219 0.703307 21.4219H-0.800781V18.0171H0.703307C1.9209 18.0171 2.63714 17.3787 2.63714 15.8891V6.24215C2.63714 2.12801 4.78583 0 9.08323 0H10.9454V3.33388H9.87109C7.72239 3.33388 6.71966 4.53975 6.71966 6.59682V15.8182C6.71966 18.2299 5.93181 19.223 4.35609 19.7195Z" fill="#A57C35"/>
</g>
<defs>
<clipPath id="clip0">
<rect width="11.7462" height="39.51" fill="white"/>
</clipPath>
</defs>
</svg>
